<svg xmlns="http://www.w3.org/2000/svg" width="48" height="48" viewBox="0 0 48 48">
  <g>
    <path fill="#EA4335" d="M24 9.5c3.54 0 6.71 1.22 9.17 3.6l6.85-6.85C35.94 2.39 30.47 0 24 0 14.62 0 6.51 5.38 2.56 13.2l7.95 6.18C12.23 13.7 17.64 9.5 24 9.5z"/>
    <path fill="#4285F4" d="M46.5 24c0-1.56-.14-3.06-.41-4.5H24v9h12.7c-.55 2.96-2.2 5.47-4.7 7.17l7.2 5.59C43.92 37.07 46.5 31 46.5 24z"/>
    <path fill="#FBBC05" d="M10.51 28.38a14.49 14.49 0 0 1 0-8.76l-7.95-6.18A24 24 0 0 0 0 24c0 3.87.93 7.52 2.56 10.56l7.95-6.18z"/>
    <path fill="#34A853" d="M24 48c6.48 0 11.94-2.13 15.92-5.8l-7.2-5.59c-2.02 1.36-4.62 2.16-8.72 2.16-6.36 0-11.77-4.2-13.49-9.88l-7.95 6.18C6.51 42.62 14.62 48 24 48z"/>
  </g>
</svg>



