<svg xmlns="http://www.w3.org/2000/svg" viewBox="0 0 240 240" width="240" height="240">
  <defs>
    <linearGradient id="tg" x1="0" x2="1" y1="0" y2="1">
      <stop offset="0%" stop-color="#2AABEE"/>
      <stop offset="100%" stop-color="#229ED9"/>
    </linearGradient>
  </defs>
  <circle cx="120" cy="120" r="120" fill="url(#tg)"/>
  <path d="M179.5 73.6c2.6-1.1 5.4 1.3 4.7 4.1l-23.8 112.2c-.7 3.4-4.8 4.7-7.3 2.4l-33.3-30.6-17.3 16.7c-1.9 1.9-5.2 1.1-6.1-1.5l-12.5-37.7-36.1-13.5c-3.6-1.3-3.7-6.5-.2-8l131.9-54.1Zm-87 79.9 3.4-33.6 62.7-55.4-77.9 48 11.8 41Zm10.6-7.7 14.4 13.3 9.3-46.1-23.7 32.8Z" fill="#fff"/>
</svg>

